# xmcd CD database file
#
# Track frame offsets:
#	150
#	24450
#	45450
#
# Disc length: 914 seconds
#
# Revision: 0
# Processed by: cddbd v1.5.1PL2 Copyright (c) Steve Scherf et al.
# Submitted via: CDex 1.51
#
DISCID=19039003
DTITLE=FIGURE'71 - 東京負け犬エレジー
DYEAR=2005
DGENRE=Pop
TTITLE0=東京負け犬エレジー
TTITLE1=恋人はラムネ色
TTITLE2=失恋プラネタリウム
EXTD=YEAR: 2005
EXTT0=
EXTT1=
EXTT2=
PLAYORDER=
